<?xml version="1.0" encoding="utf-8"?>
<!-- Generator: Adobe Illustrator 22.0.1, SVG Export Plug-In . SVG Version: 6.00 Build 0)  -->
<svg version="1.1" id="Layer_1" xmlns="http://www.w3.org/2000/svg" xmlns:xlink="http://www.w3.org/1999/xlink" x="0px" y="0px"
	 viewBox="0 0 841.9 595.3" style="enable-background:new 0 0 841.9 595.3;" xml:space="preserve">
<style type="text/css">
	.st0{fill:url(#SVGID_1_);}
	.st1{fill:url(#SVGID_2_);}
	.st2{fill:url(#SVGID_3_);}
	.st3{fill:url(#SVGID_4_);}
	.st4{fill:url(#SVGID_5_);}
	.st5{fill:url(#SVGID_6_);}
	.st6{fill:url(#SVGID_7_);}
	.st7{fill:url(#SVGID_8_);}
	.st8{opacity:0.57;fill:url(#SVGID_9_);}
	.st9{opacity:0.88;}
	.st10{fill:url(#SVGID_10_);}
	.st11{fill:url(#SVGID_11_);}
	.st12{fill:url(#SVGID_12_);}
	.st13{fill:url(#SVGID_13_);}
	.st14{fill:#74CAEB;}
	.st15{opacity:0.23;fill:#FFFFFF;}
	.st16{fill:none;stroke:#FFFFFF;stroke-miterlimit:10;}
</style>
<g>
	<g>
		<linearGradient id="SVGID_1_" gradientUnits="userSpaceOnUse" x1="233.4335" y1="351.5682" x2="233.4335" y2="246.7807">
			<stop  offset="3.603492e-03" style="stop-color:#9CD1F3"/>
			<stop  offset="1" style="stop-color:#379BBF"/>
		</linearGradient>
		<path class="st0" d="M254.4,351.6c-6.8,0-1.7-0.1-12.3-0.2c-11-0.1,0.5-0.3,6.6-0.5c1-0.4-4.7-1-7.9-1.8c0.3-0.8-4.7-1.8,1.8-2.9
			c-6.7-1.2-7.5-2.5-8.9-4c1.9-1.5,0.7-3.2,5.1-5.1c4.4-1.9-6.4-4-3.1-6.2c-2.5-2.3,1.8-4.7,1.5-7.4c2.6,0,0-8.2,0-8.2
			c0-2-0.1-3.4-0.3-4.3c-0.2-0.9-1.1-1.3-2.6-1.3c-1.1,0-3.9,0.3-8.3,0.9c-5.5,0.9-8.4,2.1-8.9,3.6c-0.1,1-0.1,2.2-0.1,3.6
			c0,1.9-5.5,4.2,0.4,6.9c-6.5,1.4,2.3,2.8,0.4,4.4c-9.5,1.6-1.6,3.2,0.6,5c-0.1,0,10.7,0.4,4.6,0.9c-3.1,0.6,9.2,1.3-4.6,2.1
			c-4.5,0.8-4.9,1.5-4,2.1c1,0.6,2.6,0.9,4.6,0.9c22,0.9,4.1,1.7,1.7,2.4c-5,0.7-10.3,1.4-3,2c7.8,1.2-6.5,1.9-3.5,2.1
			c-0.3,0-0.6-0.2,1.3-0.5c-2-0.3-5.2-0.8-5.9-1.4c4.4-0.5,5.7-1,4.2-1.6c-1.5-0.6-3.9-1.3-1.8-2.1c5-1.5-14.4-3.4-7.3-5.5
			c-8.1-2.1-4.9-4.5-1.2-7.3c-0.3-2.7-0.4-5.7-0.4-9c0-10.7,1.6-22.2,4.9-34.5c3.5-13.1,8.2-23.2,14.1-30.2
			c4.3-5.1,9.2-7.6,14.7-7.6c1.3,0,3.2,0.3,5.5,0.9c2.3,0.6,4.8,2.6,7.4,5.8c2.9,3.9,5.7,14,8.5,30.3c1.8,10.5,3.1,20.6,3.8,30.2
			c0.2,2.4,0.4,4.8,0.5,7.1c0.9,2.3-4.2,4.6,0.3,6.9c-1.6,1.8-12.4,3.5-1.2,5.1c6.8,1.6-1.2,3,1.1,4.4c-8.7,1.3,0.1,2.6,2.9,3.7
			c-1.6,1.1-5,2.1-3.5,2.9c-9.4,1.1-11.8,2.1-9.5,3c6.1,0.9-3.8,1.6,7,2.2c2.3,0.6,11,1.1,6.4,1.5
			C265.6,351.2,252.7,351.4,254.4,351.6z M219.9,304c1.8,0,3.9-0.1,6.3-0.4c5.8-0.8,9.2-1.4,9.9-2c2.2-1.3,3.3-6.8,3.3-16.2
			c0-2.8-0.5-11-1.6-24.6c-0.4-4.3-1.8-6.5-4.2-6.5h-1.2c-0.7,0-1.8,0.8-3.4,2.4c-3.9,4.1-7.4,12-10.3,23.6
			c-1.8,7-2.7,12.8-2.7,17.5c0,2.4,0.3,4.3,0.9,5.6C217.2,303.8,218.2,304,219.9,304z"/>
		<linearGradient id="SVGID_2_" gradientUnits="userSpaceOnUse" x1="301.5091" y1="379.3099" x2="301.5091" y2="281.9974">
			<stop  offset="3.603492e-03" style="stop-color:#9CD1F3"/>
			<stop  offset="1" style="stop-color:#379BBF"/>
		</linearGradient>
		<path class="st1" d="M317.5,379.3c0.1,0-8.2,0-3.5-0.1c2.8,0-2.5-0.1,10.1-0.2c5.7-0.1-12.1-0.2,0.9-0.3c-0.6-0.1-1-0.3-7.2-0.5
			c9.6-0.4,10.1-0.8,5.3-1.3c5.6-0.3-3.4-0.6-4.3-0.9c-6-0.3-7.5-0.6-7-1c3.3-1.4,1.3-3.2-0.4-5.3c-2.9-1.1-10.4-2.2,2.4-3.5
			c-0.2-0.6-5.1-1.3,1-1.9c3.3-0.3,4.9-0.7-5-1c13.1-0.3-22.3-0.7-1.4-1c-8.4-0.7-5.9-1.4,2.1-2.2c-11-0.8,2.1-1.5-6.1-2.3
			c-2.9-1.6-16.1-3.3,1.1-5.1c3.3-0.4,3.3-0.9,7.5-1.3c15.5-0.5,15.6-0.9,3.8-1.4c2.2-0.5-0.5-0.9,0.5-1.4c-0.2-0.5,5.4-1-7.1-1.4
			c-17.1-2-5.3-4-2.8-6.1c-6.5-1,1.8-2.1-0.9-3.2c-0.9-0.5-1.9-1.1,0.2-1.6c8.2-0.5,15-1.1,0.7-1.7c-6.7-2.2,16.7-4.5,0.2-6.9
			c-6.5,1.5,1.9,2.8-4,4c-2.6,0.6,4,1.2-7.2,1.8c-1.6,0.6-8.9,1.1,7.3,1.6c21.1,0.5,2.5,1,4.3,1.4c-0.3,0.4-1.8,0.9-7.9,1.2
			c-14.8,0.4-13.2,0.7-8.7,1.1c9.7,0.3,2.7,0.6,8.6,0.9c6.1,0.5,8.5,1,1.3,1.4c11.7,0.2,1.4,0.4-1,0.6c1.6,0.2-16.6,0.3-4.5,0.5
			c9.5,0.1,2.7,0.3,1.8,0.4c-5.8,0.1,1.9,0.2,2.1,0.3c7.8,0.1,6.8,0.1-3.1,0.2c1.2,0,0.8,0.1-6.3,0.1c13.1,0,10.7,0-2.9-0.1
			c-4.3,0-1.4-0.3-0.1-0.8c-3.3-0.5-5.9-1.1-6.4-2c-2.6-0.9-11-2-4.1-3.2c8.2-1.3-6.2-2.7-3-4.4c2.5-1.7-4.7-3.5-1.9-5.6
			c-6.1-2.1,1.3-4.4-0.6-6.8c-6.1-2.6,0.8-5.2,0.7-7.9c0.5-2.7,1.1-5.4,2-8.1c2.2-5.8,5.2-10.5,9.1-14.1c4.7-3.8,9.3-5.7,13.8-5.7
			c5,0,9.4,2.2,13.4,6.5l1.4,1.6c2-6.7,5.4-10.1,10.2-10.1c2.6,0,4.3,0.4,5,1.3c1.9,1.7,2.9,8.2,2.9,19.5c0,2.2,0,4.6-0.1,7.2
			s-0.2,5.4-0.3,8.3c-4.4,2.3,1.3,4.5-0.4,6.6c1.8,2.1-5.6,4.1-0.4,6c-7,1.9,2.1,3.7-0.2,5.5c-4,0.9-6.2,1.7,5,2.5
			c1.8,0.8,0.3,1.6-5.7,2.4c4.3,0.4,6,0.8,1.4,1.1c2.1,0.4-13.8,0.7-2.4,1.1c-5.4,0.4,12.2,0.7,5.8,1c-0.7,0.3-5.6,0.7-7.5,1
			c4.3,1.3-10.2,2.5,1.9,3.7c2.6,0.8-16.1,1.6-5.1,2.4c-3.8,0.8-11.6,1.5-3.4,2.2c-13,1.5-8.4,2.8,4.2,4.1c6.1,0.6-0.9,1.3-4.3,1.9
			c4,0.6,2.2,1.2,3,1.7c8.4,1.1,21,2.2,4.1,3.1c10.5,0.5,7.6,0.9,6.8,1.4c0.9,0.4-8.2,0.9-11,1.3c-8.4,0.8,11.2,1.5,1.8,2.1
			c-0.1,1.3-4.4,2.2,1.2,2.8c4.5,0.6,5,1.1,7.4,1.6c-2.6,0.5-0.8,0.9-6.2,1.4c1.3,0.8,7.6,1.6-4,2.1c2.6,0.3,7.1,0.6,0.4,0.8
			c4.4,0.2,11.4,0.4,3.8,0.6c-11.8,0.1-10.2,0.2-0.3,0.2c5.9,0.1,10,0.1-0.6,0.2c6.5,0.1,4,0.1,4.8,0.1
			C319.7,379.3,308.5,379.3,317.5,379.3z M291.5,335.3c-4.3,0,14.9-0.5,2.6-1.4c4.3-0.6,8.5-1.3,0.5-2.1c0.5-0.8-4.1-1.6,3.2-2.5
			c-5.3-1.1-3.9-2.4,4.9-3.6c-2.8-1.3-3.8-2.6-1.2-3.9c1.1-1.4,1.5-2.8,1.9-4.2c0.4-1.5,0.6-3,1.2-4.5c0.7-2.4,1.3-4.7,1.6-6.8
			c0.4-2.1,0.5-4,0.5-5.8c0-4.7-1.4-7-4.3-7c-1.1,0-2.7,0.7-4.6,2c-1.9,1.5-3.6,3.4-5,5.6c-1.4,2.2-2.6,4.7-3.5,7.5
			c-2.8,2-5.6,4-1.5,6.2c3,2.2-1.9,4.4-0.5,6.8c-6.9,2.2-1.2,4.3,0.5,6.4c0.2,2.1,1.3,4,1.6,6C293.8,334.8,301,335.3,291.5,335.3z"
			/>
		<linearGradient id="SVGID_3_" gradientUnits="userSpaceOnUse" x1="370.9979" y1="341.9375" x2="370.9979" y2="284.8723">
			<stop  offset="3.603492e-03" style="stop-color:#9CD1F3"/>
			<stop  offset="1" style="stop-color:#379BBF"/>
		</linearGradient>
		<path class="st2" d="M356.9,341.9c-10.6,0,5.7-0.1-2.9-0.3c-1.3-0.1-9.8-0.4-5-1c15.5-0.6,12.4-1.3-1.3-2.3
			c-5.9-0.6-8.8-1.3-9.3-2s1.5-1.5,5.3-2.2c-4.1-1.6,6.1-3.2-2.8-5.1c-1.1-2.3-1.8-4.8-2.4-7.4c-0.5-2.6-0.8-5.3-0.8-8.1
			c0-2.9,0.3-6,1-9.3c1.1-6,3.2-10.9,6.3-14.7c2.7-3.1,5.6-4.6,8.8-4.6c1.8,0,3.3,0.6,4.5,1.9c1.5,1.8,2.3,4.2,2.3,7.2l-0.1,1.6
			c-0.3,5.5-0.5,9.9-0.6,13.2c-0.1,3.3-0.2,5.6-0.2,6.8c0.6,2.3,2.4,4.5,0.1,6.6c-2.4,2.4-0.3,4.3,1.8,5.5
			c-1.7,1.2,10.8,1.9,1.5,1.9c4.7,0,17.4-0.5,6-1.4c2.9-0.9-7.7-2.3-0.8-4.2c0.3-1.8,5.3-4,3-6.4c1-2.4,1.9-5.1,2.8-8.1
			c0-0.2,0-0.3,0.1-0.4c0.6-2,1.1-4.2,1.4-6.5c0.7-4.2,1.5-7.3,2.6-9.2c1.3-2.8,3.3-4.2,5.7-4.2c2.5,0,4.1,1.5,5,4.5
			c0.8,3,1.5,7.5,2.1,13.4c0.3,3.7,0.7,7.2,1.4,10.4c0.3,1.6,0.7,3.2,1.1,4.7c-2.3,1.5,4.1,3,1.3,4.4c1.8,2-6.9,3.7,1,5.2
			c6.7,0.4-12.7,0.8-2.1,1.3c-3.9,0.5,5.4,1.1,1.6,1.7c3.4,0.6,15.4,1.2,4.2,1.7c2.8,0.5-5.3,1-6.8,1.4c-12.4,0.8,6.9,1.2-4.4,1.2
			c-5.5,0-11.4-0.5-5.7-1.4c-14.1-0.5-13.6-1.1-7-1.8c9.4-0.7,7.7-1.5,3.6-2.4c3.4-1.3,5.4-2.7-1.5-4.2c1-1.4,1-2.9-0.3-4.5
			c4.6,0-4-2,0-2c4.8,0,11.5,0.1,2.5,0.4c-4.3,0.3,8.6,0.7-3.5,1.2c-7.4,1.4-11,2.6-7.8,3.8c-9.4,1.2,15.6,2.2,3.3,3.2
			c2.8,1.9,5.9,3.5-3.8,4.6c3.8,0.9,7.8,1.8,1.5,2.5c0.2,0.7,12.7,1.3-7.1,1.8c16.6,0.5,8.6,0.8,2.6,1.1
			C380.3,341.8,372.8,341.9,356.9,341.9z"/>
		<linearGradient id="SVGID_4_" gradientUnits="userSpaceOnUse" x1="428.186" y1="343.5184" x2="428.186" y2="284.5847">
			<stop  offset="3.603492e-03" style="stop-color:#9CD1F3"/>
			<stop  offset="1" style="stop-color:#379BBF"/>
		</linearGradient>
		<path class="st3" d="M418.1,343.5c-1.8,0-9.1-0.5-6-1.4c-6.1-1,6.7-2.4-5.1-4.3c5.5-1-7.5-2-0.3-3.2c-4.2-1.1-4.9-2.4-3.2-3.7
			c-0.8-2.7-1.2-5.8-1.2-9.2c0-5.7,0.8-11.2,2.4-16.5c2.8-9.3,7.5-15.6,14.1-18.8c2.3-1.2,4.6-1.7,7-1.7c0.2,0,1,0,2.3,0.1
			c1.3,0,3,0.7,5.1,2.1c2.1,1.3,3.6,3.2,4.7,5.5c1.1,2.3,1.6,4.9,1.6,7.5c0,1.6-0.4,2.8-1.2,3.5c-0.8,0.7-1.7,1-2.5,1h-0.9
			c-0.9,0-1.9-1.9-3-5.6c-0.9-3-1.7-4.5-2.4-4.5c-1.1,0-2.3,1.5-3.4,4.6c-1.6,4.5-2.8,9.9-3.4,16.1c-0.2,2,0.7,3.7,1.2,5.2
			c-1.7,1.5-6,2.7-1.9,3.7c14.6,3.4-14.7,5.2,1.7,5.2c0.6,0,9.6-0.4,5.1-1.3c4-0.9,6-2.2-0.7-4c2.1-0.9,0.5-2.1,2-3.8
			c0.9-1.7,1.9-3.8,3.2-6.3c1.4-3.4,3.7-5.2,6.9-5.2c1.6,0,2.9,0.5,4,1.4c1,1,1.5,2.3,1.5,3.9c0,2.3,0.1,4.4,0.3,6.2
			c0.1,1.8,1,3.8,1.1,6c0.2,1.1,7,2.3-0.5,3.6c8.8,1.2,2.6,2.6,3.3,3.9c-9.1,0.7-1.6,1.3,0.4,2c-3.5,0.8-9.1,1.6-0.9,2.4
			c5.4,1.7,8.6,2.6-5.5,2.6c3.7,0-2.3-0.3-5.9-0.9c-2-0.6-3.7-1.5-0.9-2.7c5.8-1.2-13.8-2.5-1.9-4c3.3-1.4,20.1-3-1-4.7
			c2.1-0.9-10.5-1.3-0.1-1.3c-1.2,0,3.2,1.7-3.2,5.2c-12.1,1.1,5.5,2.1-6.4,3c-10,0.9,3.2,1.7,3.2,2.5c-0.6,1.5-3.3,2.6-2.8,3.4
			C429.5,342.7,419.9,343.5,418.1,343.5z"/>
		<linearGradient id="SVGID_5_" gradientUnits="userSpaceOnUse" x1="476.3195" y1="344.0936" x2="476.3195" y2="253.9678">
			<stop  offset="3.603492e-03" style="stop-color:#9CD1F3"/>
			<stop  offset="1" style="stop-color:#379BBF"/>
		</linearGradient>
		<path class="st4" d="M479.8,344.1c-13.4,0-10.6,0-3-0.1c3-0.1-5.3-1-6.6-2.6c-5-0.8-7.2-1.8-3.9-2.9c3.5-1.1-4.6-2.3-3.4-3.7
			c0.9-1.4,3.6-3-2.7-4.9c4.3-1.9-2.9-4-2-6.3c-0.7-3.3-1.3-6.8-1.6-10.7s-0.5-8-0.5-12.5c0-9.1,0.7-17.9,2.2-26.3
			c1.2-6.5,2.9-12,5.3-16.4c1.3-2.5,3.1-3.7,5.3-3.7l1.6,0.1c4.1,1.1,6.7,3.7,7.8,7.9c0.6,2.4,0.9,6.5,0.9,12.2l-0.1,2.2
			c0,13,0.1,22.5,0.3,28.5c0.2,4.7,0.4,8.9,0.7,12.5c3.7,3.6,11.9,6.7,1.2,9.2c-11.3,2.5-4.3,4.5,1.7,5.9c-2.8,1.3-1.5,2,1.6,2
			c6.2,0-2.6-0.6,1.4-1.7c1.8,0,8.8-7,1.7-7c2.8-1-1.2-1.8,0.7-2.6c1-1.7,2-2.6,3-2.6c0.8,0,1.5,0.5,2.3,1.4c1.2,1.5,1.7,3.5,1.7,6
			c4.1,2.6-3.5,5.2-2.1,7.7c2.8,1.3-1.9,2.4-2.6,3.5c-4,1.1,7.2,2-3.6,2.9C475.5,343.4,464.7,344.1,479.8,344.1z"/>
		<linearGradient id="SVGID_6_" gradientUnits="userSpaceOnUse" x1="512.4782" y1="343.9496" x2="512.4782" y2="258.2799">
			<stop  offset="3.603492e-03" style="stop-color:#9CD1F3"/>
			<stop  offset="1" style="stop-color:#379BBF"/>
		</linearGradient>
		<path class="st5" d="M515.9,343.9c4.6,0-10.8-0.8-7.4-2.4c-4.9-0.8-3.4-1.8-7.2-3.1c-10.5-1.2,6.1-2.6,2.6-4.3
			c10.2-1.5-4.9-3.1-0.3-4.9c-0.2-1.8-0.7-3.7-1.9-5.7c-5.7-4.1,6.4-8.8-0.8-14c0-4.9,0.5-9,1.5-12.5c1-3.4,2.6-6.1,4.6-8.1
			c1.7-1.4,3.5-2.2,5.5-2.2c1.8,0.1,3.5,0.7,5,1.9c1.5,1.2,2.6,2.7,3.3,4.7c0.9,3.4,1.3,7.7,1.4,12.6c0,2.5,0,5,0,7.4
			c0,2.5-0.1,4.9-0.1,7.4c2.3,0,3.9,0.7,4.1,1.6s-1,2.3-4.2,3.6c-6.9,2.6,0.1,5.2-0.1,5.2c10.9,0,0.9,2.7,0.1,2.7
			c-12.4,3.3-9.7,5.7-1.3,7.3C512.1,343.1,521.4,343.9,515.9,343.9z M512.9,275.4c-1.9,0-3.4-0.8-4.4-2.3c-1-1.5-1.5-3.6-1.5-6.3
			c0-1.8,0.4-3.4,1.1-4.7c0.7-1.3,1.7-2.3,2.9-2.9c1.2-0.6,2.3-0.9,3.4-0.9c1.8,0,3.4,0.5,4.7,1.5c1.3,1,2,2.6,2,4.7
			c0,4.6-1.7,8-5,10.2C514.9,275.1,513.8,275.4,512.9,275.4z"/>
		<linearGradient id="SVGID_7_" gradientUnits="userSpaceOnUse" x1="556.4927" y1="343.3744" x2="556.4927" y2="251.2365">
			<stop  offset="3.603492e-03" style="stop-color:#9CD1F3"/>
			<stop  offset="1" style="stop-color:#379BBF"/>
		</linearGradient>
		<path class="st6" d="M557.4,343.4c4.4,0-7.9,0-7.1-0.1c6.7-0.1-3.7-0.2,3.8-0.4c-14.7-0.2-7.1-0.4-6.3-0.7
			c-10.2-0.3-1.4-0.6-0.6-0.9c0.3-0.4-3-0.8-8.2-1.2c-4-0.4-5.6-0.9,2.2-1.5c-4.3-0.5-9.9-1.1-4.4-1.7c6.5-0.6,9.9-1.3,3.1-2
			c4.9-0.7-1.9-1.5-7.2-2.3c11.5-0.8,8.8-1.6,3.7-2.5c-0.6-1.8-5-3.7-0.9-5.9c-3.6-2.1-0.8-4.5-1.1-6.9c-0.2-2.5-0.4-5.2-0.4-8
			c0-9.5,0.7-19.3,2-29.3c1.8-19.1,6.2-28.6,13.1-28.6c2,0,3.8,0.9,5.5,2.7c1.6,1.8,2.4,4.3,2.4,7.3c0,1.1-0.1,2.3-0.3,3.7l-0.6,23
			c0,3.1,1.1,4.7,3.4,4.8c2.3,0.1,3.8,0.2,4.5,0.2l1.6-0.1c2.6,0,3.9,0.8,3.9,2.3c0,1.2-1.2,2-3.7,2.4c-1.3,0.3-2.6,0.7-3.9,1.2
			c-3.3,1.3-4.9,2.6-5,3.9c-0.1,0.6-0.1,1.4-0.1,2.4c0,2,0,4,0.1,5.9c0.1,1.9,0.2,3.7,0.4,5.5c-4.9,1.8,4,3.5-0.4,5.2
			c-8.9,0.8-5,1.7-4.4,2.5c-3,0.8,5.6,1.6,6.1,2.4c2.1,2.1,17.2,3.6,1.3,4.6c-9.5,1-15.6,1.5,2,1.5c-8.4,0,0.8-0.5-2-1.5
			c-5.3-1,2.2-2.5,6.3-4.4c-3.9-2.1,10.3-3.2,3.2-3.2c-5.3,0-5.2,0.7,2.8,2.2c-0.7,1.5,10.4,3,1.2,4.5c2.3,1.3,12.6,2.6,2.2,3.7
			c-7,1.1-3.8,2.2-5.2,3.2c-10,1,7.3,1.8,5.2,2.5c-2.8,0.4-1.7,0.7-2.1,1c-1.7,0.3-7.1,0.6-9.3,0.8c8.2,0.5,1.3,0.9-2.7,1.2
			C566,343.2,544.8,343.3,557.4,343.4z"/>
		<linearGradient id="SVGID_8_" gradientUnits="userSpaceOnUse" x1="609.2446" y1="379.5978" x2="609.2446" y2="283.5786">
			<stop  offset="3.603492e-03" style="stop-color:#9CD1F3"/>
			<stop  offset="1" style="stop-color:#379BBF"/>
		</linearGradient>
		<path class="st7" d="M604.3,379.6c-0.5,0,9.4,0,5.4,0c1.2,0,2.7-0.1-3.3-0.1c4.7-0.1-1.2-0.1-3-0.2c-3.6-0.1-7.5-0.2-4.4-0.3
			c5.7-0.1,1.3-0.1-0.9-0.2c-2.3-0.1-2.5-0.2,11.4-0.3c-0.6-0.1,4.5-0.2,8.3-0.3c1.8-0.1,7.6-0.2-9.3-0.3c-5.8-0.1-4.7-0.2-4.5-0.4
			c-0.4-0.1-1.6-0.3-9.6-0.4c-2.5-0.6-1-1.3-0.3-2.1c0.7-0.8,0.7-1.7-4.8-2.7c-10.7-1-13-2.1-8.5-3.3c6-1.2-4.8-2.5,6-3.8
			c-26-2.3,9.3-4.1,1.5-5.4c-12.6-0.6,13.4-1.1-5.5-1.4c4.5-0.2,4.2-0.3,4.2-0.4c0-0.1,0.2-0.2,5.8-0.2c19,0,11.3,0.1,7.7,0.4
			c-7.1,0.3-12.3,0.7-9,1.2c3.2,0.5,3.7,1.2,7.6,2c-4,0.8,4.2,1.7-1.2,2.8c-3.1,1.2-3.2,2.3-2.1,3.2c1.1,0.9,1.2,1.7,5,2.3
			c18,0.3,5.2,0.6,6.6,0.8c8.3,0.2-9.1,0.4,1,0.6c2.1,0.2-2.6,0.3-3.9,0.3c-5.4,0.1-5.8,0.1,0.4,0.1c2.8,0-5.5-0.3-1.8-1
			c-4.4-0.6-7.1-1.6,8.4-2.9c0.6-1.3-15.1-2.9,1.6-4.9c-1.4-1,4.8-2,6.4-3.2c-0.6-1.1,3.4-2.4-4.1-3.7c-7.6-1.3-6.9-2.7-1.3-4.1
			c-4.9-1.5,5.6-3,7.4-4.6c-4.8-1.6-0.3-3.3-4.8-5.1c2-1.8-0.2-3.7,0-5.6c-15.8-1.1-0.3-2.2-5.9-3.2c1.4-1,12.3-1.8,5.7-2.6
			c14.9-1.6,3.4-2.7-0.6-3.6c-2.7,1.5,8.7,2.9,2,4.2c-5.7,0.6-6.3,1.2-4.3,1.8c2,0.6,4.2,1.1-4.2,1.6c4.2,0.5,3.1,1,4.8,1.4
			c0.8,0.4,4.9,0.9,4.1,1.2c-0.7,0.4-10,0.7-10.9,1c-6,0.3-1.6,0.6-3.8,0.9c-3,0.6-6.9,1.1-3.8,1.4c-4.6,0.3,0.4,0.5-5.2,0.5
			c-6.1,0-8.9-0.1-10-0.2c-1.1-0.1-0.5-0.3,0.3-0.5c13.4-0.5-13.2-1.1,3.1-2c-10.7-1.3-5.2-2.7-4.1-4.3c5.5-1.6,3-3.4-3-5.3
			c-13.5-2.4,13.4-5-2.4-7.7c-1.5-2.7-0.8-5.5-0.8-8.4c0-10.3,2.5-18.4,7.6-24.3c2.8-3.2,5.7-4.7,8.8-4.7c1.7,0,3.2,0.7,4.5,2
			c1.6,1.8,2.4,4.6,2.4,8.3c-0.3,4.4-0.6,8.3-0.8,11.8c-0.2,3.5-1.5,6.6-0.3,9.2c7.5,2.4-9,4.7,0.1,6.9c-8.1,2.3-5,4-1,5.2
			c4,1.1,5.1,1.7,4.6,1.7c13.5,0,0.3-0.4,7.4-1.1c-5.8-0.8,6.7-1.9-1-3.4c-0.2-1.5,2.7-2.8,9.8-3.9c-1.6-1.1,0.3-2-5.7-2.6
			c3.3-1.7-2.2-3.7,1.6-6c0.4-2.3,0.6-5,0.7-7.9c0-4.9,0.1-8.4,0.3-10.5c0.4-4.5,2.3-6.8,5.6-6.8l1.7-0.1c6,0,9.7,8.8,11.2,26.4
			c0.1,1.5,0.2,3,0.3,4.6c6.7,1.6,7.3,3.2,0.2,4.9c-4.4,1.7-8.7,3.5-5.3,5.3c8.7,1.8-5,3.7,5.5,5.7c-7.7,0-2.7,1.9-3.9,3.9
			c-3.7,1,9,1.9,5.9,2.7c-5.8,0.7-2.8,1.2-2.1,1.2c7.5,1.3,5.1,2.5,4.4,3.7c-11,1.2,5.1,2.4-7.2,3.6c-5.2,1.2,0.7,2.3-1.5,3.4
			c-2.8,1.1,7.4,2.2,2.4,3.2c5.9,1-1,2,7.7,3c-2.5,1,0.2,1.9-8.5,2.8c9.4,0.9,0.3,1.8-4.5,2.6c4.8,0.8-13.3,1.7,0.4,2.5
			c12.7,1.6,10.7,3-3.5,4.4c5.7,0.7-5.2,1.3-4.2,1.9c0,0.6-10.5,1.2-0.2,1.7c-5.1,1.1-1.8,2.1,1.6,2.9c4.4,0.4-0.3,0.8-8.8,1.2
			c-4.5,0.4,5.6,0.7-3.8,1c-2.5,0.1-0.4,0.3-6.3,0.4c-3.9,0.1-7.3,0.2-3.3,0.3C615.8,379.5,609.1,379.6,604.3,379.6z"/>
	</g>
	<g>
		<linearGradient id="SVGID_9_" gradientUnits="userSpaceOnUse" x1="512.4782" y1="283.1167" x2="512.4782" y2="215.4537">
			<stop  offset="3.603492e-03" style="stop-color:#9CD1F3"/>
			<stop  offset="1" style="stop-color:#379BBF"/>
		</linearGradient>
		<path class="st8" d="M524.6,279.2c-7.6,5.2-15.7,5.2-23.6,0.5c-7.7-4.6-11.7-13.4-9.8-22.6c3.1-15.6,12.1-28.3,21.2-41.6
			c9.1,13.1,17.9,25.5,21.1,40.8C535.6,265.8,532.6,273.7,524.6,279.2z"/>
		<g class="st9">
			<linearGradient id="SVGID_10_" gradientUnits="userSpaceOnUse" x1="521.1002" y1="256.7166" x2="500.6743" y2="277.1425">
				<stop  offset="0" style="stop-color:#009FE3"/>
				<stop  offset="8.694556e-02" style="stop-color:#009BE0"/>
				<stop  offset="0.242" style="stop-color:#008FD5"/>
				<stop  offset="0.4472" style="stop-color:#007AC3"/>
				<stop  offset="0.6948" style="stop-color:#0059A6"/>
				<stop  offset="0.9758" style="stop-color:#2E2B86"/>
				<stop  offset="1" style="stop-color:#312783"/>
			</linearGradient>
			<path class="st10" d="M530.8,266.8c-0.9,4.8-3.8,8.4-8,11c-11.9,7.4-28.2-0.2-29.1-13.5c-0.1-1,0-1.9,0.2-2.9
				c0.4-2.1,1.8-3.2,4.1-3.4c2.1,0.2,3.8,1.2,5.3,2.5c3,2.7,5.8,5.5,9,8c1.7,1.3,3.3,2.7,5.5,3.2c2,0.5,4.7-0.2,5.5-1.6
				c1.3-0.2,2-1.2,2.9-1.9c1.1-0.8,2.2-1.7,3.6-2.1C530.1,266.2,530.8,265.9,530.8,266.8z"/>
			<linearGradient id="SVGID_11_" gradientUnits="userSpaceOnUse" x1="522.2017" y1="257.9118" x2="522.2017" y2="269.5224">
				<stop  offset="0" style="stop-color:#009FE3"/>
				<stop  offset="8.694556e-02" style="stop-color:#009BE0"/>
				<stop  offset="0.242" style="stop-color:#008FD5"/>
				<stop  offset="0.4472" style="stop-color:#007AC3"/>
				<stop  offset="0.6948" style="stop-color:#0059A6"/>
				<stop  offset="0.9758" style="stop-color:#2E2B86"/>
				<stop  offset="1" style="stop-color:#312783"/>
			</linearGradient>
			<path class="st11" d="M530.8,266.8c0.1-0.9-0.6-0.6-1.1-0.5c-1.4,0.4-2.5,1.3-3.6,2.1c-0.9,0.7-1.7,1.7-2.9,1.9
				c-0.3,0-0.5,0-0.8,0c-2.4,0.4-4.4-0.2-6-1.9c-1.3-1.4-2.3-3-3.2-4.6c1.4-0.3,2-1.4,2.7-2.3c1.8-2.4,3.4-4.9,5.2-7.3
				c1.3-1.7,3.1-2.8,5.6-2.3c1.3,0.2,2.1,1.1,2.7,2.1c1,1.7,1.3,3.6,1.6,5.4C531.3,261.8,531.5,264.3,530.8,266.8z"/>
			<linearGradient id="SVGID_12_" gradientUnits="userSpaceOnUse" x1="497.8986" y1="263.7057" x2="523.1736" y2="263.7057">
				<stop  offset="0" style="stop-color:#4CC2F1"/>
				<stop  offset="8.694556e-02" style="stop-color:#48BBEC"/>
				<stop  offset="0.242" style="stop-color:#3EA8E0"/>
				<stop  offset="0.4472" style="stop-color:#3489CA"/>
				<stop  offset="0.6948" style="stop-color:#325EA9"/>
				<stop  offset="0.9758" style="stop-color:#322B86"/>
				<stop  offset="1" style="stop-color:#312783"/>
			</linearGradient>
			<path class="st12" d="M513.1,263.8c1,1.6,1.9,3.2,3.2,4.6c1.6,1.8,3.6,2.3,6,1.9c0.3,0,0.5,0,0.8,0c-0.8,1.4-3.5,2.1-5.5,1.6
				c-2.2-0.5-3.9-1.9-5.5-3.2c-3.1-2.5-6-5.3-9-8c-1.5-1.3-3.1-2.4-5.3-2.5c0.7-0.8,1.3-1.7,2.2-2.2c0.1,0,0.1,0,0.2-0.1
				c1.7-0.8,3.3-0.6,4.9,0.1C508.8,257.7,511.2,260.6,513.1,263.8z"/>
			<linearGradient id="SVGID_13_" gradientUnits="userSpaceOnUse" x1="493.8794" y1="252.9236" x2="498.1827" y2="252.9236">
				<stop  offset="0" style="stop-color:#009FE3"/>
				<stop  offset="8.694556e-02" style="stop-color:#009BE0"/>
				<stop  offset="0.242" style="stop-color:#008FD5"/>
				<stop  offset="0.4472" style="stop-color:#007AC3"/>
				<stop  offset="0.6948" style="stop-color:#0059A6"/>
				<stop  offset="0.9758" style="stop-color:#2E2B86"/>
				<stop  offset="1" style="stop-color:#312783"/>
			</linearGradient>
			<path class="st13" d="M493.9,254c-0.1-1.3,0-2.6,0.8-3.8c0.7-1,1.7-1.3,2.6-0.8c1,0.6,1.2,1.7,0.4,2.6c-1,1.2-2.1,2.4-2.3,4
				c0,0.3-0.3,0.6-0.8,0.6c-0.5,0-0.7-0.4-0.7-0.8C493.9,255.2,493.9,254.6,493.9,254z"/>
			<path class="st14" d="M500.3,255.9c0,0-0.1,0.1-0.2,0.1c-0.4-0.1-0.8-0.2-1.2-0.3c-0.8-0.2-1.1-0.7-0.9-1.4
				c0.2-0.8,0.8-0.9,1.6-0.8c0.8,0.1,1.1,0.7,1,1.4C500.5,255.2,500.4,255.5,500.3,255.9z"/>
		</g>
		<path class="st15" d="M513.1,220.8l13.4,21.6c0,0,4.3,6.6-2.5,6.1C524,248.5,510.7,246.7,513.1,220.8z"/>
		<path class="st16" d="M524.6,279.1c-7.6,5.2-15.7,5.2-23.6,0.5c-7.7-4.6-11.7-13.4-9.8-22.6c3.1-15.6,12.1-28.3,21.2-41.6
			c9.1,13.1,17.9,25.5,21.1,40.8C535.6,265.7,532.6,273.6,524.6,279.1z"/>
	</g>
</g>
</svg>
