<?xml version="1.0" encoding="utf-8"?>
<!-- Generator: Adobe Illustrator 22.0.1, SVG Export Plug-In . SVG Version: 6.00 Build 0)  -->
<svg version="1.1" id="Layer_1" xmlns="http://www.w3.org/2000/svg" xmlns:xlink="http://www.w3.org/1999/xlink" x="0px" y="0px"
	 viewBox="0 0 841.9 595.3" style="enable-background:new 0 0 841.9 595.3;" xml:space="preserve">
<style type="text/css">
	.st0{fill:url(#SVGID_1_);}
	.st1{fill:none;stroke:url(#SVGID_2_);stroke-width:12;stroke-miterlimit:10;}
	.st2{fill:none;stroke:url(#SVGID_3_);stroke-width:8;stroke-miterlimit:10;}
	.st3{fill:none;stroke:url(#SVGID_4_);stroke-width:8;stroke-miterlimit:10;}
	.st4{fill:none;stroke:url(#SVGID_5_);stroke-width:8;stroke-miterlimit:10;}
</style>
<g>
	<g>
		<linearGradient id="SVGID_1_" gradientUnits="userSpaceOnUse" x1="429.9187" y1="368.4606" x2="429.9187" y2="256.9845">
			<stop  offset="0" style="stop-color:#77BBDC"/>
			<stop  offset="1" style="stop-color:#004A96"/>
		</linearGradient>
		<path class="st0" d="M395.2,312.7c0,24.8,20.2,45,45,45c10.4,0,20.2-3.4,28.3-10l6.7,8.4c-4.9,3.8-10.3,6.9-16.1,9
			c-6.1,2.1-12.4,3.2-19,3.2c-7.5,0-14.7-1.4-21.6-4.3c-6.7-2.9-12.7-6.9-17.8-11.9c-5.2-5.2-9.2-11.2-11.9-17.8
			c-2.9-6.9-4.4-14.2-4.4-21.7s1.5-14.9,4.4-21.6c2.8-6.7,6.7-12.7,11.9-17.8c5.1-5.2,11-9.2,17.8-11.9c6.9-2.9,14.1-4.4,21.6-4.4
			c6.6,0,12.9,1.1,19,3.4c5.8,2,11.2,5.1,16.1,9l-6.7,8.3c-8.1-6.4-17.9-10-28.3-10C415.4,267.7,395.2,287.9,395.2,312.7z"/>
	</g>
	<linearGradient id="SVGID_2_" gradientUnits="userSpaceOnUse" x1="416.0062" y1="404.4566" x2="416.0062" y2="181.7281">
		<stop  offset="0" style="stop-color:#77BBDC"/>
		<stop  offset="1" style="stop-color:#004A96"/>
	</linearGradient>
	<path class="st1" d="M347.1,400.2c-48.6-48.6-48.6-127.4,0-176s127.4-48.6,176,0"/>
	<g>
		<linearGradient id="SVGID_3_" gradientUnits="userSpaceOnUse" x1="437.8811" y1="419.6155" x2="437.8811" y2="206.2927">
			<stop  offset="0" style="stop-color:#77BBDC"/>
			<stop  offset="1" style="stop-color:#004A96"/>
		</linearGradient>
		<path class="st2" d="M379.3,254.2c-32.3,32.3-32.3,85,0,117.3c13.6,13.6,30.7,21.9,49.9,23.9l-2.2,19.7
			c-11.4-1.4-22.3-4.4-32.7-9.2c-10.8-5.2-20.3-12-28.9-20.5c-9.8-9.8-17.4-20.9-22.5-33.7c-5-12.6-7.6-25.5-7.6-38.7
			c0-13.6,2.6-26.5,7.6-38.7c5.2-12.8,12.8-24.3,22.5-34.1c9.8-9.8,21.3-17.4,33.9-22.3c12.4-5.2,25.3-7.8,38.7-7.6
			c13.4-0.2,26.3,2.4,38.7,7.6c12.8,5.2,24.1,12.6,33.9,22.3c8.6,8.6,15.4,18.2,20.3,29.1c5,10.2,8,21.1,9.2,32.7l-19.5,2
			c-2.2-18.9-10.4-36.3-23.9-49.9C464.3,221.9,411.7,221.9,379.3,254.2z"/>
	</g>
	<g>
		<linearGradient id="SVGID_4_" gradientUnits="userSpaceOnUse" x1="433.1356" y1="333.3458" x2="433.1356" y2="281.1209">
			<stop  offset="0" style="stop-color:#77BBDC"/>
			<stop  offset="1" style="stop-color:#004A96"/>
		</linearGradient>
		<polyline class="st3" points="441.4,306.2 426,290.8 426,333.3 		"/>
		<linearGradient id="SVGID_5_" gradientUnits="userSpaceOnUse" x1="455.2206" y1="333.3458" x2="455.2206" y2="284.4683">
			<stop  offset="0" style="stop-color:#77BBDC"/>
			<stop  offset="1" style="stop-color:#004A96"/>
		</linearGradient>
		<line class="st4" x1="455.2" y1="284.5" x2="455.2" y2="333.3"/>
	</g>
</g>
</svg>
